<svg width="50" height="50" viewBox="0 0 50 50" fill="none" xmlns="http://www.w3.org/2000/svg">
<path d="M40 0C45.5228 0 50 4.47715 50 10V40C50 45.5228 45.5228 50 40 50H10C4.47715 50 8.05346e-08 45.5228 0 40V10C0 4.47715 4.47715 8.05322e-08 10 0H40ZM12 11C8.68629 11 6 13.6863 6 17V34C6 37.3137 8.68629 40 12 40H38C41.3137 40 44 37.3137 44 34V17C44 13.6863 41.3137 11 38 11H12ZM40 34C40 35.0357 39.2128 35.887 38.2041 35.9893L38 36H12L11.7959 35.9893C10.8543 35.8938 10.1062 35.1457 10.0107 34.2041L10 34V17.6465L23.6904 29.5117C24.442 30.1628 25.558 30.1628 26.3096 29.5117L40 17.6465V34ZM36.9463 15L25 25.3525L13.0537 15H36.9463Z" fill="white"/>
</svg>
