<svg width="50" height="50" viewBox="0 0 50 50" fill="none" xmlns="http://www.w3.org/2000/svg">
<path d="M40 0C45.5228 0 50 4.47715 50 10V40C50 45.5228 45.5228 50 40 50H10C4.47715 50 8.05346e-08 45.5228 0 40V10C0 4.47715 4.47715 8.05322e-08 10 0H40ZM24.5 6C14.2827 6 6 14.4909 6 24.9648C6.00003 33.3069 11.2635 40.3944 18.5645 42.9326C19.4303 43.2088 19.8594 42.6019 19.8594 41.7803V38.4297C19.8451 38.4335 18.619 38.7589 17.8174 38.7461C16.6161 38.7268 15.8671 38.5735 14.8477 37.9238C13.4319 37.0215 13.5334 35.6034 12.4346 34.3203C12.0016 33.8148 11.6921 33.5618 11.1973 33.1826C10.5788 32.7086 10.8799 32.3784 11.1973 32.3613C12.3727 32.2981 12.9754 32.6455 13.7959 33.3721C14.724 34.1939 14.6371 35.0518 15.7139 35.7119C16.9512 36.4704 18.4362 36.4067 19.8965 35.8379C20.0017 34.7472 20.3319 33.9053 20.9131 33.3037C15.5963 32.4649 12.6201 29.6876 12.6201 24.3955C12.6202 22.1565 13.3741 20.3449 14.6006 18.9365L14.5908 18.8965C14.0433 16.9876 14.1403 15.8556 14.7246 13.7754C17.0227 13.9622 18.0762 14.4711 19.7363 15.752L19.7764 15.7832C21.2875 15.3261 22.9082 15.1035 24.5 15.1035C26.0926 15.1035 27.7041 15.3114 29.2021 15.752C30.8624 14.471 31.9158 13.9622 34.2139 13.7754C34.7982 15.8556 34.8952 16.9876 34.3477 18.8965C35.5324 20.2968 36.2558 22.1137 36.2559 24.3955C36.2559 29.8751 33.3331 32.5501 27.9893 33.3311C28.691 34.0727 29.0166 35.1803 29.0166 36.6602V41.7803C29.0166 42.602 29.5734 43.207 30.4395 42.9307C37.743 40.394 43 33.3088 43 24.9648C43 14.4909 34.7173 6 24.5 6Z" fill="white"/>
</svg>
