<svg width="50" height="50" viewBox="0 0 50 50" fill="none" xmlns="http://www.w3.org/2000/svg">
<path d="M40 0C45.5228 0 50 4.47715 50 10V40C50 45.5228 45.5228 50 40 50H10C4.47715 50 8.05346e-08 45.5228 0 40V10C0 4.47715 4.47715 8.05322e-08 10 0H40ZM35.4248 9.5C34.7759 9.50432 34.2033 9.92581 34.0059 10.5439L30.8027 20.5693H19.1973L15.9941 10.5439C15.7967 9.92581 15.2241 9.50432 14.5752 9.5C13.9667 9.49598 13.4208 9.85941 13.1855 10.4121L13.1426 10.5244L7.57715 27.1836C7.36757 27.811 7.59377 28.5018 8.13379 28.8838L18.875 36.4805L24.1299 40.2217L25 40.8418L25.8701 40.2217L31.125 36.4805L41.8662 28.8838C42.4062 28.5018 42.6324 27.811 42.4229 27.1836L36.8574 10.5244C36.6517 9.90908 36.0736 9.49571 35.4248 9.5Z" fill="white"/>
</svg>
