<svg width="50" height="50" viewBox="0 0 50 50" fill="none" xmlns="http://www.w3.org/2000/svg">
<path d="M40 0C45.5228 0 50 4.47715 50 10V40C50 45.5228 45.5228 50 40 50H10C4.47715 50 8.05346e-08 45.5228 0 40V10C0 4.47715 4.47715 8.05322e-08 10 0H40ZM16 6C10.4772 6 6 10.4772 6 16V34C6 39.5228 10.4772 44 16 44H34C39.5228 44 44 39.5228 44 34V16C44 10.4772 39.5228 6 34 6H16ZM34 10C37.3137 10 40 12.6863 40 16V34C40 37.3137 37.3137 40 34 40H16C12.6863 40 10 37.3137 10 34V16C10 12.6863 12.6863 10 16 10H34ZM25 15C19.4772 15 15 19.4772 15 25C15 30.5228 19.4772 35 25 35C30.5228 35 35 30.5228 35 25C35 19.4772 30.5228 15 25 15ZM25 19C28.3137 19 31 21.6863 31 25C31 28.3137 28.3137 31 25 31C21.6863 31 19 28.3137 19 25C19 21.6863 21.6863 19 25 19ZM35.0498 12.5C33.8073 12.5001 32.7998 13.5074 32.7998 14.75C32.7998 15.9926 33.8073 16.9999 35.0498 17C36.2924 17 37.2998 15.9926 37.2998 14.75C37.2998 13.5074 36.2924 12.5 35.0498 12.5Z" fill="white"/>
</svg>
