<svg width="50" height="50" viewBox="0 0 50 50" fill="none" xmlns="http://www.w3.org/2000/svg">
<path d="M40 0C45.5228 0 50 4.47715 50 10V40C50 45.5228 45.5228 50 40 50H10C4.47715 50 8.05346e-08 45.5228 0 40V10C0 4.47715 4.47715 8.05322e-08 10 0H40ZM8.5 19V43H15.5V19H8.5ZM34.75 18.6875C32.9792 18.6875 31.4531 19.1094 30.1719 19.9531C28.8906 20.7865 27.9844 21.9375 27.4531 23.4062H27.1875V19H19.9219V43H27.5625V29.3125C27.5729 28.3958 27.7396 27.6146 28.0625 26.9688C28.3958 26.3229 28.8646 25.8281 29.4688 25.4844C30.0833 25.1302 30.7917 24.9531 31.5938 24.9531C32.8021 24.9531 33.7448 25.3281 34.4219 26.0781C35.1094 26.8281 35.4479 27.8698 35.4375 29.2031V43H43.0781V27.7031C43.0885 25.901 42.7448 24.3281 42.0469 22.9844C41.3594 21.6302 40.3906 20.5781 39.1406 19.8281C37.901 19.0677 36.4375 18.6875 34.75 18.6875ZM12 8C9.79086 8 8 9.79086 8 12C8 14.2091 9.79086 16 12 16C14.2091 16 16 14.2091 16 12C16 9.79086 14.2091 8 12 8Z" fill="white"/>
</svg>
