<svg width="50" height="50" viewBox="0 0 50 50" fill="none" xmlns="http://www.w3.org/2000/svg">
<path d="M40 0C45.5228 0 50 4.47715 50 10V40C50 45.5228 45.5228 50 40 50H10C4.47715 50 8.05346e-08 45.5228 0 40V10C0 4.47715 4.47715 8.05322e-08 10 0H40ZM19.9385 8.0293C18.3896 7.23473 16.3247 7.41705 14.54 8.13672C12.691 8.88248 10.8467 10.3103 9.67676 12.4424C7.26258 16.8422 8.03939 23.4631 15.3623 31.9775C22.6681 40.4718 29.0453 42.5892 33.7969 41.3438C36.1307 40.732 37.9081 39.3337 39.0371 37.7471C40.1348 36.2045 40.7306 34.3124 40.3984 32.665C40.3204 32.2785 40.0927 31.9371 39.7656 31.7168C36.8923 29.781 35.0859 28.8279 31.5957 28.0469C31.166 27.9508 30.7156 28.048 30.3643 28.3135L30.3633 28.3145L30.3613 28.3154L30.3594 28.3174C30.3575 28.3188 30.3549 28.3205 30.3525 28.3223C30.3477 28.3259 30.3417 28.3307 30.335 28.3359C30.3212 28.3467 30.3028 28.3607 30.2812 28.3779C30.2383 28.4124 30.1803 28.4604 30.1104 28.5205C29.9707 28.6404 29.7816 28.8119 29.5645 29.0303C29.1582 29.439 28.64 30.03 28.1699 30.7773C28.1189 30.7802 28.0548 30.7776 27.9863 30.7627C27.91 30.746 27.8537 30.721 27.8232 30.7031C23.4413 28.1313 20.9229 24.341 19.3555 20.2002C19.3506 20.1873 19.3444 20.1526 19.3691 20.1025C19.3937 20.053 19.4225 20.0401 19.4287 20.0381C20.2462 19.7964 20.9839 19.3554 21.4746 19.0215C21.73 18.8477 21.9413 18.6862 22.0908 18.5674C22.1659 18.5077 22.2271 18.4584 22.2705 18.4219C22.2921 18.4037 22.3092 18.3882 22.3223 18.377C22.3287 18.3714 22.3346 18.367 22.3389 18.3633C22.341 18.3615 22.3432 18.3598 22.3447 18.3584L22.3486 18.3545C22.6994 18.0452 22.8856 17.5896 22.8525 17.123C22.6198 13.8365 22.1315 11.9314 20.6094 8.7207C20.468 8.42273 20.2319 8.17987 19.9385 8.0293ZM15.6621 10.9189C16.7058 10.4981 17.5903 10.4498 18.1582 10.5635C19.1972 12.839 19.586 14.2998 19.7939 16.5352C19.7915 16.5368 19.7896 16.5393 19.7871 16.541C19.4017 16.8033 18.9619 17.0477 18.5781 17.1611C16.857 17.6703 15.9138 19.5809 16.5498 21.2617C18.2864 25.8494 21.1754 30.2806 26.3047 33.291C26.9419 33.6648 27.7234 33.8322 28.457 33.7656C29.189 33.6992 30.1083 33.3654 30.6504 32.4688C30.9846 31.9161 31.3738 31.4657 31.6855 31.1514C34.0057 31.7346 35.3987 32.4344 37.4805 33.8027C37.4335 34.3965 37.1757 35.1886 36.5928 36.0078C35.8363 37.0708 34.6336 38.0226 33.0361 38.4414C29.9249 39.2569 24.6363 38.1597 17.6367 30.0215C10.6551 21.904 10.7812 16.666 12.3066 13.8857C13.1064 12.4283 14.3797 11.4362 15.6621 10.9189Z" fill="white"/>
</svg>
