<svg width="35" height="36" viewBox="0 0 35 36" fill="none" xmlns="http://www.w3.org/2000/svg">
<g filter="url(#filter0_d_27_160)">
<path d="M21.5 33C28.1274 33 33.5 27.6274 33.5 21C33.5 14.3726 28.1274 9 21.5 9C20.142 9 18.8368 9.22556 17.6196 9.64126L16.1675 5.22479C15.2188 2.33919 12.1104 0.769063 9.22484 1.71781C6.33924 2.66656 4.76911 5.77491 5.71786 8.66051L8.84284 18.1651C8.41307 18.0573 7.96322 18 7.5 18C4.46243 18 2 20.4624 2 23.5C2 26.5376 4.46243 29 7.5 29C10.8674 28.6427 12.5644 29.4569 15.5 31.3946C17.265 32.4156 19.3143 33 21.5 33Z" fill="#BA2D0B"/>
<path d="M16.4322 10.0317L16.8271 11.2328L18.0236 10.8242C19.1124 10.4523 20.2813 10.25 21.5 10.25C27.4371 10.25 32.25 15.0629 32.25 21C32.25 26.9371 27.4371 31.75 21.5 31.75C19.5527 31.75 17.7298 31.2333 16.1569 30.3304C14.6959 29.3672 13.4271 28.6041 12.0546 28.1499C10.6554 27.6869 9.22356 27.5672 7.4392 27.7496C5.12002 27.7171 3.25 25.8269 3.25 23.5C3.25 21.1528 5.15279 19.25 7.5 19.25C7.85984 19.25 8.20753 19.2944 8.53863 19.3775L10.7388 19.9296L10.0303 17.7747L6.90532 8.27009C6.1722 6.04031 7.38548 3.6384 9.61526 2.90527C11.845 2.17215 14.247 3.38543 14.9801 5.61521L16.4322 10.0317Z" stroke="white" stroke-width="2.5"/>
</g>
<defs>
<filter id="filter0_d_27_160" x="0.5" y="0.941162" width="34.5" height="34.5588" filterUnits="userSpaceOnUse" color-interpolation-filters="sRGB">
<feFlood flood-opacity="0" result="BackgroundImageFix"/>
<feColorMatrix in="SourceAlpha" type="matrix" values="0 0 0 0 0 0 0 0 0 0 0 0 0 0 0 0 0 0 127 0" result="hardAlpha"/>
<feOffset dy="1"/>
<feGaussianBlur stdDeviation="0.75"/>
<feComposite in2="hardAlpha" operator="out"/>
<feColorMatrix type="matrix" values="0 0 0 0 0 0 0 0 0 0 0 0 0 0 0 0 0 0 0.5 0"/>
<feBlend mode="normal" in2="BackgroundImageFix" result="effect1_dropShadow_27_160"/>
<feBlend mode="normal" in="SourceGraphic" in2="effect1_dropShadow_27_160" result="shape"/>
</filter>
</defs>
</svg>
