<svg width="15" height="34" viewBox="0 0 15 34" fill="none" xmlns="http://www.w3.org/2000/svg">
<g filter="url(#filter0_d_28_179)">
<path d="M12 27C12 27 11.9999 29 12 30H3.00005C2.99994 29 3.00005 27 3.00005 27H6.00005V18V15V5H3.00005C3.00005 5 2.99994 3 3.00005 2H12C11.9999 2.99997 12 5 12 5H9.00005V15V18V27H12Z" fill="#607744"/>
<path d="M12 27C12 27 11.9999 29 12 30H3.00005C2.99994 29 3.00005 27 3.00005 27H6.00005V18V15V5H3.00005C3.00005 5 2.99994 3 3.00005 2H12C11.9999 2.99997 12 5 12 5H9.00005V15V18V27H12Z" stroke="white" stroke-width="2" stroke-linejoin="bevel"/>
</g>
<defs>
<filter id="filter0_d_28_179" x="0.5" y="0.5" width="14" height="33" filterUnits="userSpaceOnUse" color-interpolation-filters="sRGB">
<feFlood flood-opacity="0" result="BackgroundImageFix"/>
<feColorMatrix in="SourceAlpha" type="matrix" values="0 0 0 0 0 0 0 0 0 0 0 0 0 0 0 0 0 0 127 0" result="hardAlpha"/>
<feOffset dy="1"/>
<feGaussianBlur stdDeviation="0.75"/>
<feComposite in2="hardAlpha" operator="out"/>
<feColorMatrix type="matrix" values="0 0 0 0 0 0 0 0 0 0 0 0 0 0 0 0 0 0 0.5 0"/>
<feBlend mode="normal" in2="BackgroundImageFix" result="effect1_dropShadow_28_179"/>
<feBlend mode="normal" in="SourceGraphic" in2="effect1_dropShadow_28_179" result="shape"/>
</filter>
</defs>
</svg>
