<svg width="18" height="34" viewBox="0 0 18 34" fill="none" xmlns="http://www.w3.org/2000/svg">
<g filter="url(#filter0_d_28_179)">
<path d="M14.0002 26C15.9999 26 15.9999 30 14.0002 30H11.0002C10.5 30 9.5 29.5 9 29C8.5 29.5 7.5 30 7 30H4.0002C2 30 1.99993 26 4.0002 26H7.0002V17L6 16L7.0002 15V6H4.0002C2 6 2 2 4.0002 2H7C7.5 2 8.5 2.5 9 3C9.5 2.5 10.5 2 11 2H14.0002C16 2 16 6 14.0002 6H11.0002V15L12 16L11.0002 17V26H14.0002Z" fill="#607744"/>
<path d="M14.0002 26C15.9999 26 15.9999 30 14.0002 30H11.0002C10.5 30 9.5 29.5 9 29C8.5 29.5 7.5 30 7 30H4.0002C2 30 1.99993 26 4.0002 26H7.0002V17L6 16L7.0002 15V6H4.0002C2 6 2 2 4.0002 2H7C7.5 2 8.5 2.5 9 3C9.5 2.5 10.5 2 11 2H14.0002C16 2 16 6 14.0002 6H11.0002V15L12 16L11.0002 17V26H14.0002Z" stroke="white" stroke-width="2" stroke-linejoin="round"/>
</g>
<defs>
<filter id="filter0_d_28_179" x="0" y="0.5" width="18" height="33" filterUnits="userSpaceOnUse" color-interpolation-filters="sRGB">
<feFlood flood-opacity="0" result="BackgroundImageFix"/>
<feColorMatrix in="SourceAlpha" type="matrix" values="0 0 0 0 0 0 0 0 0 0 0 0 0 0 0 0 0 0 127 0" result="hardAlpha"/>
<feOffset dy="1"/>
<feGaussianBlur stdDeviation="0.75"/>
<feComposite in2="hardAlpha" operator="out"/>
<feColorMatrix type="matrix" values="0 0 0 0 0 0 0 0 0 0 0 0 0 0 0 0 0 0 0.5 0"/>
<feBlend mode="normal" in2="BackgroundImageFix" result="effect1_dropShadow_28_179"/>
<feBlend mode="normal" in="SourceGraphic" in2="effect1_dropShadow_28_179" result="shape"/>
</filter>
</defs>
</svg>
