<svg width="50" height="50" viewBox="0 0 50 50" fill="none" xmlns="http://www.w3.org/2000/svg">
<path d="M40 0C45.5228 0 50 4.47715 50 10V40C50 45.5228 45.5228 50 40 50H10C4.47715 50 8.05346e-08 45.5228 0 40V10C0 4.47715 4.47715 8.05322e-08 10 0H40ZM25.9932 20.0811C24.817 20.0811 23.7806 20.2602 22.8857 20.6182C21.9975 20.9697 21.2723 21.4746 20.71 22.1328C20.1475 22.7848 19.7699 23.5582 19.5781 24.4531L23.3564 24.7598C23.4971 24.2741 23.7842 23.8713 24.2188 23.5518C24.6534 23.2258 25.2385 23.0625 25.9736 23.0625C26.6702 23.0625 27.2069 23.2292 27.584 23.5615C27.9675 23.8939 28.1591 24.3635 28.1592 24.9707V25.0283C28.1592 25.3415 28.0412 25.5785 27.8047 25.7383C27.5682 25.898 27.1879 26.0195 26.6641 26.1025C26.1399 26.1792 25.4493 26.2621 24.5928 26.3516C23.8642 26.4219 23.1676 26.5433 22.5029 26.7158C21.8445 26.8884 21.256 27.1446 20.7383 27.4834C20.2207 27.8222 19.8111 28.2692 19.5107 28.8252C19.2104 29.3813 19.0605 30.0686 19.0605 30.8867C19.0605 31.8583 19.2715 32.6703 19.6934 33.3223C20.1216 33.9678 20.7034 34.4567 21.4385 34.7891C22.1735 35.115 23.0107 35.2783 23.9502 35.2783C24.6789 35.2783 25.3218 35.182 25.8779 34.9902C26.4339 34.7921 26.9104 34.5209 27.3066 34.1758C27.7029 33.8242 28.0194 33.4182 28.2559 32.958H28.3701V35H32.2441V25.0664C32.2441 24.1909 32.075 23.4398 31.7363 22.8135C31.3976 22.1807 30.9337 21.6634 30.3457 21.2607C29.764 20.858 29.0961 20.5599 28.3418 20.3682C27.5941 20.1765 26.8111 20.0811 25.9932 20.0811ZM3.62988 20.2725V29.6494C3.63627 30.7999 3.8473 31.7878 4.2627 32.6123C4.68457 33.4369 5.26971 34.0731 6.01758 34.5205C6.76543 34.9679 7.63188 35.1914 8.61621 35.1914C9.72181 35.1913 10.6579 34.9293 11.4248 34.4053C12.1982 33.8812 12.7516 33.188 13.084 32.3252H13.2373V35H17.1592V20.2725H13.0742V28.7295C13.0806 29.3878 12.9491 29.9403 12.6807 30.3877C12.4186 30.8351 12.0738 31.1742 11.6455 31.4043C11.2172 31.628 10.7568 31.7402 10.2646 31.7402C9.49134 31.7402 8.87424 31.4873 8.41406 30.9824C7.954 30.4775 7.72123 29.7901 7.71484 28.9209V20.2725H3.62988ZM34.7383 15.3633V35H38.8223V15.3633H34.7383ZM41.4229 30.4639V35H46.1611V30.4639H41.4229ZM28.1885 29.7363C28.1884 30.2539 28.0569 30.717 27.7949 31.126C27.5329 31.5351 27.1721 31.8616 26.7119 32.1045C26.2517 32.341 25.721 32.459 25.1201 32.459C24.4938 32.459 23.9764 32.3149 23.5674 32.0273C23.1648 31.7334 22.963 31.3088 22.9629 30.7529C22.9629 30.3696 23.0618 30.0496 23.2598 29.7939C23.4579 29.5319 23.7368 29.3243 24.0947 29.1709C24.4526 29.0175 24.8713 28.9053 25.3506 28.835C25.5742 28.803 25.8239 28.7678 26.0986 28.7295C26.3733 28.6848 26.6481 28.637 26.9229 28.5859C27.1977 28.5284 27.4438 28.4672 27.6611 28.4033C27.8848 28.333 28.0607 28.2559 28.1885 28.1729V29.7363ZM41.4229 21.3789V25.9141H46.1611V21.3789H41.4229Z" fill="white"/>
</svg>
