<svg width="50" height="50" viewBox="0 0 50 50" fill="none" xmlns="http://www.w3.org/2000/svg">
<path d="M40 0C45.5228 0 50 4.47715 50 10V40C50 45.5228 45.5228 50 40 50H10C4.47715 50 8.05346e-08 45.5228 0 40V10C0 4.47715 4.47715 8.05322e-08 10 0H40ZM20.9717 13.2402C20.801 13.2402 20.6369 13.2461 20.4795 13.2578C20.3171 13.2465 20.1479 13.2402 19.9717 13.2402C18.7663 13.2402 17.8917 13.5334 17.3477 14.1201C16.8143 14.7068 16.537 15.6241 16.5156 16.8721C16.4836 18.5254 16.4618 20.1203 16.4512 21.6562C16.4405 23.1921 16.4355 24.712 16.4355 26.2158C16.4355 27.7198 16.4405 29.2404 16.4512 30.7764C16.4618 32.3015 16.4836 33.8959 16.5156 35.5596C16.537 36.8609 16.8143 37.8 17.3477 38.376C17.8917 38.9413 18.7773 39.2236 20.0039 39.2236C20.1814 39.2236 20.3519 39.2168 20.5156 39.2061C20.6718 39.2168 20.8347 39.2236 21.0039 39.2236C22.2942 39.2236 23.2218 38.9411 23.7871 38.376C24.3631 37.8 24.6672 36.8609 24.6992 35.5596C24.7312 34.5571 24.7421 33.6078 24.7314 32.7119C24.7208 31.816 24.7 30.8668 24.668 29.8643H22.2119C22.2226 30.4934 22.2325 31.1386 22.2432 31.7998C22.2538 32.4611 22.2598 33.1279 22.2598 33.7998C22.2598 34.4611 22.2538 35.107 22.2432 35.7363C22.2325 36.5362 22.0571 37.107 21.7158 37.4482C21.4627 37.7014 21.0685 37.8557 20.5342 37.915C20.0601 37.8557 19.7045 37.7012 19.4678 37.4482C19.1585 37.107 18.993 36.5362 18.9717 35.7363C18.9397 34.0403 18.9129 32.4078 18.8916 30.8398C18.8809 29.2719 18.876 27.7304 18.876 26.2158C18.876 24.6905 18.8809 23.1491 18.8916 21.5918C18.9129 20.0346 18.9397 18.4028 18.9717 16.6963C18.993 15.8858 19.1526 15.32 19.4512 15C19.6856 14.7574 20.0339 14.6066 20.4951 14.5479C21.0018 14.6064 21.3763 14.7573 21.6191 15C21.9391 15.32 22.1046 15.8856 22.1152 16.6963C22.1259 17.2828 22.1318 17.8854 22.1318 18.5039C22.1425 19.1119 22.1425 19.7201 22.1318 20.3281C22.1318 20.9361 22.1259 21.5335 22.1152 22.1201H24.5713C24.582 21.7041 24.5879 21.1652 24.5879 20.5039C24.5986 19.8426 24.5986 19.1808 24.5879 18.5195C24.5879 17.8478 24.582 17.2986 24.5713 16.8721C24.5393 15.5708 24.2411 14.6426 23.6758 14.0879C23.1211 13.5226 22.2196 13.2402 20.9717 13.2402ZM39.2471 13.2402C39.0765 13.2402 38.9122 13.2461 38.7549 13.2578C38.5925 13.2465 38.4233 13.2402 38.2471 13.2402C37.0418 13.2402 36.1671 13.5336 35.623 14.1201C35.0897 14.7068 34.8123 15.6241 34.791 16.8721C34.759 18.5254 34.7372 20.1203 34.7266 21.6562C34.7159 23.1921 34.7109 24.712 34.7109 26.2158C34.7109 27.7198 34.7159 29.2404 34.7266 30.7764C34.7372 32.3015 34.759 33.8959 34.791 35.5596C34.8123 36.8609 35.0897 37.8 35.623 38.376C36.167 38.9411 37.052 39.2236 38.2783 39.2236C38.456 39.2236 38.627 39.2168 38.791 39.2061C38.947 39.2168 39.1094 39.2236 39.2783 39.2236C40.569 39.2236 41.4972 38.9413 42.0625 38.376C42.6385 37.8 42.9426 36.8609 42.9746 35.5596C43.0066 34.5571 43.0175 33.6078 43.0068 32.7119C42.9962 31.816 42.9744 30.8668 42.9424 29.8643H40.4863C40.497 30.4934 40.5079 31.1386 40.5186 31.7998C40.5292 32.4611 40.5342 33.1279 40.5342 33.7998C40.5342 34.4611 40.5292 35.107 40.5186 35.7363C40.5078 36.5362 40.3315 37.107 39.9902 37.4482C39.737 37.7013 39.343 37.8557 38.8086 37.915C38.3347 37.8556 37.9788 37.7012 37.7422 37.4482C37.4329 37.1069 37.2684 36.5361 37.2471 35.7363C37.2151 34.0403 37.1883 32.4078 37.167 30.8398C37.1563 29.2719 37.1504 27.7304 37.1504 26.2158C37.1504 24.6905 37.1563 23.1491 37.167 21.5918C37.1883 20.0346 37.2151 18.4028 37.2471 16.6963C37.2684 15.8856 37.4279 15.32 37.7266 15C37.9611 14.7574 38.3091 14.6065 38.7705 14.5479C39.2771 14.6065 39.6518 14.7573 39.8945 15C40.2145 15.32 40.38 15.8856 40.3906 16.6963C40.4013 17.2828 40.4062 17.8854 40.4062 18.5039C40.4169 19.1119 40.4169 19.7201 40.4062 20.3281C40.4062 20.9361 40.4013 21.5335 40.3906 22.1201H42.8467C42.8573 21.7041 42.8623 21.1652 42.8623 20.5039C42.873 19.8426 42.873 19.1808 42.8623 18.5195C42.8623 17.8478 42.8573 17.2986 42.8467 16.8721C42.8147 15.5707 42.5155 14.6426 41.9502 14.0879C41.3956 13.5228 40.4946 13.2403 39.2471 13.2402ZM7.06445 13.4004C7.02179 17.1016 7 20.8027 7 24.5039C7 28.2052 7.02179 31.9071 7.06445 35.6084C7.08584 36.8882 7.36817 37.8057 7.91211 38.3604C8.45606 38.9148 9.352 39.1923 10.5996 39.1924C10.7723 39.1924 10.9385 39.1846 11.0977 39.1738C11.2582 39.1846 11.4254 39.1924 11.5996 39.1924C12.8369 39.1924 13.7285 38.915 14.2725 38.3604C14.8271 37.8057 15.1094 36.8882 15.1201 35.6084C15.1628 31.9071 15.1846 28.2052 15.1846 24.5039C15.1846 20.8027 15.1628 17.1016 15.1201 13.4004H12.6641C12.6961 15.8643 12.7119 18.3499 12.7119 20.8564C12.7226 23.3522 12.7226 25.848 12.7119 28.3438C12.7012 30.8291 12.6854 33.3095 12.6641 35.7842C12.664 36.5308 12.4986 37.0747 12.168 37.416C11.928 37.6639 11.5742 37.8188 11.1064 37.8809H11.0918C10.6199 37.8188 10.2559 37.664 10 37.416C9.65872 37.0747 9.48831 36.5307 9.48828 35.7842C9.46695 33.3095 9.4511 30.8291 9.44043 28.3438C9.44043 25.848 9.44539 23.3522 9.45605 20.8564C9.47739 18.3499 9.49918 15.8643 9.52051 13.4004H7.06445ZM30.1055 13.208C29.9253 13.208 29.7524 13.2146 29.5869 13.2256C29.4328 13.2147 29.2724 13.208 29.1055 13.208C28.2521 13.208 27.5637 13.3308 27.041 13.5762C26.5187 13.8108 26.1349 14.1946 25.8896 14.7275C25.655 15.2609 25.5322 15.9602 25.5215 16.8242C25.5108 17.6882 25.4999 18.5897 25.4893 19.5283C25.4786 20.4562 25.4786 21.2935 25.4893 22.04C25.5213 23 25.6065 23.8004 25.7451 24.4404C25.8838 25.0802 26.1404 25.5917 26.5137 25.9756C26.8976 26.3488 27.4625 26.6263 28.209 26.8076L29.6494 27.1758C30.2893 27.3464 30.7054 27.7251 30.8975 28.3115C31.0895 28.8875 31.1905 29.6186 31.2012 30.5039C31.2225 31.2399 31.2384 31.8749 31.249 32.4082C31.2597 32.9415 31.2597 33.4587 31.249 33.96C31.249 34.4613 31.2332 35.0428 31.2012 35.7041C31.1692 36.4827 30.9938 37.0484 30.6738 37.4004C30.4391 37.6594 30.0809 37.8184 29.6006 37.8809C29.1107 37.8183 28.74 37.6591 28.4893 37.4004C28.1586 37.0484 27.9773 36.4827 27.9453 35.7041C27.9026 34.7441 27.8809 33.7733 27.8809 32.792C27.8809 31.8 27.9026 30.8134 27.9453 29.832H25.5371C25.5158 30.5787 25.4999 31.2454 25.4893 31.832C25.4786 32.4079 25.4736 32.9837 25.4736 33.5596C25.4843 34.1356 25.4942 34.7923 25.5049 35.5283C25.5582 36.8293 25.8626 37.7678 26.417 38.3438C26.9717 38.9091 27.879 39.1924 29.1377 39.1924C29.3069 39.1924 29.4696 39.184 29.626 39.1729C29.7895 39.1841 29.9602 39.1924 30.1377 39.1924C31.3428 39.1923 32.2227 38.909 32.7773 38.3438C33.3319 37.7678 33.6252 36.8294 33.6572 35.5283C33.6786 34.8777 33.6895 34.317 33.6895 33.8477C33.7001 33.3784 33.7051 32.8928 33.7051 32.3916C33.7051 31.8903 33.6952 31.261 33.6738 30.5039C33.6525 29.5866 33.5723 28.8079 33.4336 28.168C33.2949 27.528 33.0334 27.0158 32.6494 26.6318C32.2761 26.2372 31.7162 25.9489 30.9697 25.7676L29.5771 25.4316C28.9053 25.2716 28.4732 24.9358 28.2812 24.4238C28.1 23.9118 27.9989 23.1172 27.9775 22.04C27.9455 21.1334 27.9238 20.2369 27.9131 19.3516C27.9131 18.4557 27.9349 17.5649 27.9775 16.6797C28.0202 15.9119 28.1956 15.3569 28.5049 15.0156C28.7377 14.7507 29.0919 14.586 29.5664 14.5205C30.0311 14.5859 30.384 14.7507 30.625 15.0156C30.945 15.3569 31.1213 15.9118 31.1533 16.6797C31.1853 17.5756 31.1962 18.4772 31.1855 19.3838C31.1855 20.2904 31.1697 21.1919 31.1377 22.0879H33.5615C33.5829 21.0427 33.5937 20.0667 33.5938 19.1602C33.5938 18.243 33.5828 17.475 33.5615 16.8564C33.5295 15.5551 33.2462 14.621 32.7129 14.0557C32.1795 13.4906 31.3105 13.208 30.1055 13.208Z" fill="white"/>
</svg>
