<svg width="50" height="50" viewBox="0 0 50 50" fill="none" xmlns="http://www.w3.org/2000/svg">
<path d="M40 0C45.5228 0 50 4.47715 50 10V40C50 45.5228 45.5228 50 40 50H10C4.47715 50 8.05346e-08 45.5228 0 40V10C0 4.47715 4.47715 8.05322e-08 10 0H40ZM38.6758 11.8984C34.0031 11.2566 15.9293 11.4898 11.4189 11.8984C7.91131 12.2162 6.12864 13.7051 5.49609 16.8652C4.86362 20.026 4.80608 30.2398 5.49609 33.0049C6.32696 36.3342 7.62391 37.6011 11.4189 37.9707C18.9519 38.7043 31.1427 38.6479 38.6758 37.9707C42.356 37.6399 43.9669 35.9055 44.4268 33.0049C45.1871 28.2082 45.1952 22.3955 44.4268 16.8652C43.9171 13.1971 41.551 12.2935 38.6758 11.8984ZM31.2002 24.9346L20.8496 30.6904V19.1787L31.2002 24.9346Z" fill="white"/>
</svg>
